# xmcd CD database file
#
# Track frame offsets:
#	150
#	16362
#	26998
#	47161
#	56122
#	70962
#	88820
#	102013
#	126524
#	140051
#	160441
#	179052
#	193606
#
# Disc length: 2825 seconds
#
# Revision: 0
# Processed by: cddbd v1.5.2PL0 Copyright (c) Steve Scherf et al.
# Submitted via: CDex 1.70beta2
#
DISCID=ca0b070d
DTITLE=ふちがみとふなと - アワ フェイバリット ソングス
DYEAR=2001
DGENRE=Jazz
TTITLE0=Paisley Park
TTITLE1=おおシャンゼリゼ(Les Champs-Elysees)
TTITLE2=Don't Think Twice, It's All Right
TTITLE3=The James Bond Theme
TTITLE4=Somebody to Love
TTITLE5=Sumahama
TTITLE6=I Can't Turn You Loose
TTITLE7=Martha
TTITLE8=So Long
TTITLE9=愛はどこへ(I'll Be There)
TTITLE10=トライ トゥ リメンバー(Try to Remember)
TTITLE11=Smoke on the Water
TTITLE12=Fairytale of New York
EXTD=YEAR: 2001
EXTT0=
EXTT1=
EXTT2=
EXTT3=
EXTT4=
EXTT5=
EXTT6=
EXTT7=
EXTT8=
EXTT9=
EXTT10=
EXTT11=
EXTT12=
PLAYORDER=
